<svg width="180" height="72" viewBox="0 0 180 72" fill="none" xmlns="http://www.w3.org/2000/svg">
<path fill-rule="evenodd" clip-rule="evenodd" d="M0.966553 1.0125V24.4835V35.0585L2.21655 40.8025L9.16155 53.3255L16.5216 60.6625L25.5556 67.5365L32.0916 71.0785L37.8066 68.6485L44.4056 64.0645L50.3536 59.1345L54.6456 55.3845L57.6196 50.7325L61.2716 44.5185L62.7696 40.8875L64.5746 33.6875V1.0125H0.966553Z" fill="white"/>
<mask id="mask0" mask-type="alpha" maskUnits="userSpaceOnUse" x="0" y="0" width="66" height="72">
<path fill-rule="evenodd" clip-rule="evenodd" d="M0.000366211 0.00050354H65.267V71.9995H0.000366211V0.00050354Z" fill="white"/>
</mask>
<g mask="url(#mask0)">
<path fill-rule="evenodd" clip-rule="evenodd" d="M1.62637 1.6265V32.9815C1.62637 33.0345 1.70237 38.6615 5.58437 46.0395C9.14737 52.8085 16.7304 62.4715 32.6514 70.1945C48.5844 62.4685 56.1594 52.8065 59.7094 46.0385C63.5804 38.6615 63.6404 33.0365 63.6404 32.9805V1.6265H1.62637ZM32.6514 71.9995L32.2994 71.8315C15.6824 63.8605 7.79037 53.7665 4.09437 46.7005C0.062366 38.9895 0.000366211 33.2255 0.000366211 32.9835V0.00050354H65.2674V32.9815C65.2674 33.2235 65.2224 38.9855 61.2004 46.6965C57.5174 53.7625 49.6344 63.8565 33.0024 71.8315L32.6514 71.9995Z" fill="#0D395F"/>
</g>
<path fill-rule="evenodd" clip-rule="evenodd" d="M20.8916 12.2579C20.1576 11.2739 19.1806 10.4829 18.0446 9.9799C18.4796 10.6089 18.8466 11.3809 19.1286 12.2579H20.8916Z" fill="#0D395F"/>
<path fill-rule="evenodd" clip-rule="evenodd" d="M15.7635 9.5186V12.2576H17.8485C17.3225 10.8246 16.5575 9.8526 15.7635 9.5186" fill="#0D395F"/>
<path fill-rule="evenodd" clip-rule="evenodd" d="M11.7817 15.9205H14.5437V13.4775H12.0987C11.9277 14.2145 11.8167 15.0335 11.7817 15.9205" fill="#0D395F"/>
<path fill-rule="evenodd" clip-rule="evenodd" d="M12.4585 12.2579H14.5435V9.5179C13.7495 9.8519 12.9845 10.8239 12.4585 12.2579" fill="#0D395F"/>
<path fill-rule="evenodd" clip-rule="evenodd" d="M12.0986 19.584H14.5436V17.14H11.7816C11.8166 18.028 11.9286 18.847 12.0986 19.584" fill="#0D395F"/>
<path fill-rule="evenodd" clip-rule="evenodd" d="M14.5439 23.543V20.804H12.4589C12.9849 22.237 13.7499 23.209 14.5439 23.543" fill="#0D395F"/>
<path fill-rule="evenodd" clip-rule="evenodd" d="M10.5625 17.1402H8.02051C8.09351 18.0092 8.32551 18.8302 8.68151 19.5842H10.8565C10.6955 18.8202 10.5955 18.0012 10.5625 17.1402" fill="#0D395F"/>
<path fill-rule="evenodd" clip-rule="evenodd" d="M18.2085 13.4776H15.7635V15.9206H18.5255C18.4905 15.0336 18.3785 14.2146 18.2085 13.4776" fill="#0D395F"/>
<path fill-rule="evenodd" clip-rule="evenodd" d="M10.8564 13.4776H8.68139C8.32439 14.2306 8.09339 15.0526 8.02039 15.9206H10.5624C10.5954 15.0606 10.6954 14.2416 10.8564 13.4776" fill="#0D395F"/>
<path fill-rule="evenodd" clip-rule="evenodd" d="M9.4165 20.8038C10.1505 21.7868 11.1265 22.5768 12.2615 23.0798C11.8275 22.4518 11.4615 21.6808 11.1785 20.8038H9.4165Z" fill="#0D395F"/>
<path fill-rule="evenodd" clip-rule="evenodd" d="M19.745 15.9205H22.287C22.214 15.0525 21.983 14.2315 21.626 13.4775H19.451C19.611 14.2415 19.712 15.0605 19.745 15.9205" fill="#0D395F"/>
<path fill-rule="evenodd" clip-rule="evenodd" d="M12.2613 9.981C11.1263 10.484 10.1503 11.274 9.41626 12.258H11.1783C11.4613 11.38 11.8273 10.609 12.2613 9.981" fill="#0D395F"/>
<path fill-rule="evenodd" clip-rule="evenodd" d="M19.4507 19.584H21.6257C21.9827 18.831 22.2137 18.009 22.2877 17.14H19.7447C19.7127 18.001 19.6117 18.82 19.4507 19.584" fill="#0D395F"/>
<path fill-rule="evenodd" clip-rule="evenodd" d="M57.6196 20.2369L49.8016 24.8219L41.9766 20.2369V11.3839H43.1966V19.5379L49.8016 23.4079L56.3996 19.5379V11.3839H57.6196V20.2369ZM44.4276 10.6109C44.4276 10.6109 47.6816 10.6629 49.1426 13.3539V21.5299C47.6816 18.8399 44.4276 18.7869 44.4276 18.7869C44.4276 18.7869 44.3806 10.5569 44.4276 10.6109V10.6109ZM50.3546 13.4239C51.8316 10.7339 55.1196 10.6809 55.1196 10.6809C55.1686 10.6279 55.1196 18.8569 55.1196 18.8569C55.1196 18.8569 51.8316 18.9099 50.3546 21.6009V13.4239ZM39.7116 26.0289H25.5556V24.6059H27.6996V17.6089H37.5666V24.6059H39.7116V26.0289ZM15.1546 24.9159C10.5306 24.9159 6.76861 21.1539 6.76861 16.5299C6.76861 11.9069 10.5306 8.1459 15.1546 8.1459C19.7776 8.1459 23.5386 11.9069 23.5386 16.5299C23.5386 21.1539 19.7776 24.9159 15.1546 24.9159V24.9159ZM33.3456 3.6149V4.4269C33.9656 4.6929 34.4036 5.2849 34.4036 5.9819C34.4036 6.6769 33.9656 7.2689 33.3456 7.5339V8.5219C34.2776 8.8619 35.9596 9.6779 36.7286 11.3339C37.4486 12.8859 37.5806 14.2289 37.5876 14.9649H38.2506V16.3879H27.0166V14.9649H27.6806C27.6866 14.2289 27.8186 12.8859 28.5386 11.3339C29.3066 9.6809 30.9886 8.8619 31.9216 8.5199V7.5329C31.3026 7.2679 30.8646 6.6769 30.8646 5.9819C30.8646 5.2849 31.3026 4.6939 31.9216 4.4279V3.6149H3.99561V32.1129C3.99561 32.1129 3.99961 33.3949 4.42361 35.5279C4.47261 35.5109 4.52261 35.4959 4.57161 35.4789C7.62461 34.4359 13.1346 32.6489 16.7836 32.6489C20.4316 32.6489 21.7716 33.6169 25.2716 33.6169C25.6756 33.6169 26.0646 33.6259 26.4466 33.6389V27.2399H38.8206V33.8489C41.2986 33.7739 43.1456 33.8459 45.3766 34.2499C48.4676 34.8079 50.3666 36.8189 52.5626 37.1539C54.7596 37.4889 56.6956 37.0059 59.0406 37.1169C59.6456 37.1459 60.0856 37.1659 60.4766 37.1839C61.2706 34.0739 61.2726 32.1129 61.2726 32.1129V3.6149H33.3456Z" fill="#0D395F"/>
<path fill-rule="evenodd" clip-rule="evenodd" d="M18.5258 17.1402H15.7638V19.5842H18.2088C18.3788 18.8472 18.4898 18.0282 18.5258 17.1402" fill="#0D395F"/>
<path fill-rule="evenodd" clip-rule="evenodd" d="M15.7635 23.543C16.5575 23.208 17.3225 22.237 17.8485 20.804H15.7635V23.543Z" fill="#0D395F"/>
<path fill-rule="evenodd" clip-rule="evenodd" d="M18.0449 23.0811C19.1799 22.5781 20.1569 21.7881 20.8909 20.8041H19.1279C18.8459 21.6811 18.4799 22.4531 18.0449 23.0811" fill="#0D395F"/>
<mask id="mask1" mask-type="alpha" maskUnits="userSpaceOnUse" x="0" y="0" width="66" height="72">
<path fill-rule="evenodd" clip-rule="evenodd" d="M0 72H65.267V0H0V72Z" fill="white"/>
</mask>
<g mask="url(#mask1)">
<path fill-rule="evenodd" clip-rule="evenodd" d="M31.3149 33.066H33.9529V28.502H31.3149V33.066Z" fill="#0D395F"/>
<path fill-rule="evenodd" clip-rule="evenodd" d="M30.8525 54.6109C30.6515 54.4509 30.3385 54.2899 29.8155 54.0719C29.4215 54.2819 29.1395 54.6029 29.1395 55.0689C29.1395 55.6319 29.5415 55.9939 30.1695 55.9939C30.7325 55.9939 31.1185 55.6649 31.1185 55.1899C31.1185 54.9409 31.0305 54.7479 30.8525 54.6109" fill="#0D395F"/>
<path fill-rule="evenodd" clip-rule="evenodd" d="M30.1771 53.3248C30.5311 53.1468 30.9491 52.8658 30.9491 52.4238C30.9491 51.9978 30.6361 51.7398 30.0971 51.7398C29.5821 51.7398 29.2441 52.0208 29.2441 52.4398C29.2441 52.9068 29.7991 53.1718 30.1771 53.3248" fill="#0D395F"/>
<path fill-rule="evenodd" clip-rule="evenodd" d="M34.641 51.7642C34.327 51.7642 34.086 52.0142 33.933 52.4402C33.805 52.7852 33.748 53.2432 33.748 53.8152C33.748 54.3542 33.788 54.7722 33.861 55.0692C34.006 55.6972 34.295 55.9622 34.633 55.9622C34.971 55.9622 35.244 55.6722 35.389 55.2052C35.493 54.8602 35.542 54.4022 35.542 53.8632C35.542 53.3402 35.501 52.9792 35.421 52.6322C35.268 52.0052 34.995 51.7642 34.641 51.7642" fill="#0D395F"/>
<path fill-rule="evenodd" clip-rule="evenodd" d="M39.1275 56.6216C37.7125 56.6216 37.2615 54.9736 37.2615 53.8226C37.2615 52.2386 38.0665 51.0976 39.1365 51.0976C40.5755 51.0976 41.0255 52.6816 41.0255 53.8476C41.0255 55.5116 40.2545 56.6216 39.1275 56.6216V56.6216ZM34.6255 56.6216C33.2095 56.6216 32.7595 54.9736 32.7595 53.8226C32.7595 52.2386 33.5635 51.0976 34.6325 51.0976C36.0725 51.0976 36.5225 52.6816 36.5225 53.8476C36.5225 55.5116 35.7505 56.6216 34.6255 56.6216V56.6216ZM30.0815 56.6536C29.1565 56.6536 28.1835 56.1956 28.1835 55.1336C28.1835 54.4826 28.6175 53.9596 29.2115 53.7506C28.7225 53.5506 28.3525 53.0586 28.3525 52.5196C28.3525 51.4996 29.3015 51.0976 30.1775 51.0976C31.1905 51.0976 31.8905 51.6356 31.8905 52.4236C31.8905 53.0826 31.3755 53.4526 30.8205 53.6616C31.6005 53.9836 32.0915 54.3696 32.0915 55.0366C32.0915 56.0746 31.0055 56.6536 30.0815 56.6536V56.6536ZM27.4025 56.5006H24.8535V55.7856H25.7865V52.2146C25.7065 52.2636 25.4565 52.4236 25.2395 52.5276C25.0235 52.6326 24.7255 52.7616 24.6275 52.7936L24.4115 52.3186L26.0275 51.1846H26.6555V55.7856H27.4025V56.5006ZM40.8695 44.5176V44.5466H24.4275L12.5125 52.0116C16.7565 57.2016 23.1125 62.6146 32.6385 67.1776C42.1875 62.6056 48.5475 57.1836 52.7875 51.9846L40.8695 44.5176Z" fill="#0D395F"/>
<path fill-rule="evenodd" clip-rule="evenodd" d="M39.144 51.7642C38.83 51.7642 38.589 52.0142 38.436 52.4402C38.308 52.7852 38.251 53.2432 38.251 53.8152C38.251 54.3542 38.291 54.7722 38.364 55.0692C38.508 55.6972 38.798 55.9622 39.136 55.9622C39.474 55.9622 39.747 55.6722 39.892 55.2052C39.997 54.8602 40.044 54.4022 40.044 53.8632C40.044 53.3402 40.004 52.9792 39.924 52.6322C39.771 52.0052 39.498 51.7642 39.144 51.7642" fill="#0D395F"/>
<path fill-rule="evenodd" clip-rule="evenodd" d="M24.145 36.278H41.123V35.058H24.145V36.278Z" fill="#0D395F"/>
<path fill-rule="evenodd" clip-rule="evenodd" d="M27.461 41.696H37.806V39.224H27.461V41.696ZM26.241 42.916H39.026V38.005H26.241V42.916Z" fill="#0D395F"/>
<path fill-rule="evenodd" clip-rule="evenodd" d="M31.3149 23.058H33.9529V18.963H31.3149V23.058Z" fill="#0D395F"/>
<path fill-rule="evenodd" clip-rule="evenodd" d="M29.082 23.056H29.895V18.969H29.082V23.056Z" fill="#0D395F"/>
<path fill-rule="evenodd" clip-rule="evenodd" d="M35.373 23.056H36.186V18.969H35.373V23.056Z" fill="#0D395F"/>
<path fill-rule="evenodd" clip-rule="evenodd" d="M33.4083 5.982C33.4083 6.386 33.0613 6.714 32.6343 6.714C32.2063 6.714 31.8593 6.386 31.8593 5.982C31.8593 5.576 32.2063 5.247 32.6343 5.247C33.0613 5.247 33.4083 5.576 33.4083 5.982" fill="#0D395F"/>
<path fill-rule="evenodd" clip-rule="evenodd" d="M24.3984 40.1255L10.2834 49.0255C10.5844 49.4645 10.8994 49.9065 11.2294 50.3525L24.3984 42.0485V40.1255Z" fill="#0D395F"/>
<path fill-rule="evenodd" clip-rule="evenodd" d="M40.868 42.1168L54.014 50.4258C54.344 49.9808 54.66 49.5388 54.961 49.0998L40.868 40.1928V42.1168Z" fill="#0D395F"/>
</g>
<path fill-rule="evenodd" clip-rule="evenodd" d="M77.3099 23.2107L78.9825 22.8783L79.1888 20.78V13.3215L78.9825 11.2232L77.3099 10.8908V10.2676H81.7689L82.8223 13.3215L85.9395 21.4864L89.1389 13.3007L90.1096 10.2676H94.5686V10.8908L92.9166 11.2232L92.6897 13.3215V20.78L92.9166 22.8783L94.5686 23.2107V23.8552H88.8712V23.2107L90.522 22.8783L90.7495 20.78V11.6804L87.1986 20.78L86.1463 23.8552H84.8045L83.6896 20.78L80.1175 11.6804V20.78L80.3444 22.8783L81.9964 23.2107V23.8552H77.3099V23.2107Z" fill="white"/>
<path fill-rule="evenodd" clip-rule="evenodd" d="M97.226 10.4546C97.226 9.74822 97.8038 9.14532 98.5264 9.14532C99.2283 9.14532 99.8274 9.72797 99.8274 10.4754C99.8274 11.1402 99.2903 11.7633 98.5264 11.7633C97.8239 11.7633 97.226 11.2436 97.226 10.4546V10.4546ZM96.1524 23.211L97.5976 22.941L97.8038 21.3618V17.0819L97.5976 15.4824L95.9457 15.2119V14.568L99.7855 14.1946L99.5792 17.0819V21.3618L99.7855 22.941L101.231 23.211V23.8549H96.1524V23.211Z" fill="white"/>
<path fill-rule="evenodd" clip-rule="evenodd" d="M108.59 21.5697V15.4199C108.012 15.1707 107.557 15.0464 106.917 15.0464C104.976 15.0464 103.903 16.6667 103.903 19.2217C103.903 21.4865 104.729 22.8582 106.339 22.8582C107.063 22.8582 107.826 22.5252 108.59 21.5697M102.045 19.6587C102.045 16.417 104.068 14.132 107 14.132C107.578 14.132 108.032 14.1944 108.59 14.3187V11.888L108.362 10.2879L106.711 10.0186V9.37405L110.572 9.00005L110.344 11.888V21.3616L110.572 22.9408L111.913 23.2108V23.8547L108.59 24.2912L108.9 22.3177C107.949 23.6061 106.979 24.2912 105.617 24.2912C103.531 24.2912 102.045 22.4836 102.045 19.6587" fill="white"/>
<path fill-rule="evenodd" clip-rule="evenodd" d="M119.203 21.5697V15.4199C118.625 15.1707 118.171 15.0464 117.531 15.0464C115.59 15.0464 114.517 16.6667 114.517 19.2217C114.517 21.4865 115.343 22.8582 116.953 22.8582C117.676 22.8582 118.44 22.5252 119.203 21.5697M112.658 19.6587C112.658 16.417 114.682 14.132 117.613 14.132C118.191 14.132 118.646 14.1944 119.203 14.3187V11.888L118.976 10.2879L117.325 10.0186V9.37405L121.185 9.00005L120.958 11.888V21.3616L121.185 22.9408L122.526 23.2108V23.8547L119.203 24.2912L119.513 22.3177C118.563 23.6061 117.593 24.2912 116.23 24.2912C114.145 24.2912 112.658 22.4836 112.658 19.6587" fill="white"/>
<path fill-rule="evenodd" clip-rule="evenodd" d="M123.83 23.2107L125.275 22.9413L125.502 21.3616V11.8879L125.275 10.2879L123.624 10.0185V9.374L127.464 9L127.257 11.8879V21.3616L127.484 22.9413L128.908 23.2107V23.8552H123.83V23.2107Z" fill="white"/>
<path fill-rule="evenodd" clip-rule="evenodd" d="M134.149 17.6639L135.552 17.4558C135.552 15.8147 134.789 14.9632 133.653 14.9632C132.497 14.9632 131.693 15.8355 131.465 17.6639H134.149ZM129.648 19.305C129.648 16.1471 131.238 14.132 133.818 14.132C135.986 14.132 137.493 15.5448 137.411 18.4951H131.444C131.444 18.4951 131.424 18.7859 131.424 18.9523C131.424 21.2992 132.559 22.9617 134.748 22.9617C135.408 22.9617 136.152 22.7958 136.874 22.2553L137.287 22.816C136.11 23.897 135.223 24.2912 133.736 24.2912C131.279 24.2912 129.648 22.5045 129.648 19.305V19.305Z" fill="white"/>
<path fill-rule="evenodd" clip-rule="evenodd" d="M145.883 19.1391C145.883 16.9992 144.974 15.5448 143.592 15.5448C142.746 15.5448 141.94 15.8974 141.197 16.7709V21.3617L141.403 23.1698C141.899 23.3357 142.25 23.419 142.787 23.419C144.914 23.419 145.883 21.5074 145.883 19.1391M139.421 23.8548V11.8881L139.215 10.2881L137.564 10.0187V9.37416L141.403 9.00017L141.197 11.8881V15.794C141.96 14.776 143.076 14.1321 144.335 14.1321C146.317 14.1321 147.7 15.8356 147.7 18.4744C147.7 21.6947 145.78 24.2913 142.063 24.2913C141.197 24.2913 140.598 24.2913 139.421 23.8548" fill="white"/>
<path fill-rule="evenodd" clip-rule="evenodd" d="M150.095 21.0504V17.0821L149.868 15.4826L148.257 15.2121V14.5682L152.077 14.1947L151.87 17.0821V20.5723C151.87 22.0059 152.53 22.8782 153.832 22.8782C154.719 22.8782 155.524 22.3383 156.102 21.6319V17.0821L155.896 15.4826L154.285 15.2121V14.5682L158.105 14.1947L157.878 17.0821V21.3619L158.105 22.9412L159.591 23.2106V23.8551L156.102 24.2291L156.33 22.3596C155.359 23.71 154.492 24.2915 153.026 24.2915C151.209 24.2915 150.095 23.1279 150.095 21.0504" fill="white"/>
<mask id="mask2" mask-type="alpha" maskUnits="userSpaceOnUse" x="168" y="14" width="12" height="16">
<path fill-rule="evenodd" clip-rule="evenodd" d="M168.997 14.5677H179.154V29.0489H168.997V14.5677Z" fill="white"/>
</mask>
<g mask="url(#mask2)">
<path fill-rule="evenodd" clip-rule="evenodd" d="M169.823 28.779V28.0726L171.887 27.7402L172.774 26.2859L173.663 24.1876L170.772 17.0822L169.926 15.4614L168.997 15.2122V14.5677H173.518V15.2122L172.197 15.4614L172.693 17.0822L174.55 21.8812L176.285 17.0822L176.738 15.4614L175.438 15.2122V14.5677H179.154V15.2122L178.101 15.4614L177.317 17.0822L172.816 29.0489L169.823 28.779Z" fill="white"/>
</g>
<path fill-rule="evenodd" clip-rule="evenodd" d="M167.068 14.4106C165.896 14.4106 164.971 15.0709 164.107 16.5337C164.104 16.5112 164.1 16.4893 164.099 16.4668L164.102 16.2244C164.109 16.1186 164.122 16.0129 164.133 15.9077C164.159 15.6766 164.185 15.446 164.212 15.2154C164.25 14.878 164.287 14.54 164.326 14.2031L160.696 14.576V15.2194L162.346 15.4893L162.572 17.0871V21.3613L162.346 22.9389L160.903 23.2088V23.8522H166.201V23.2088L164.552 22.9389L164.326 21.3613V20.8647V19.5155V18.0179V17.6067V17.4369C164.326 17.4099 164.328 17.3818 164.329 17.3531C164.927 16.6096 165.728 16.3408 166.346 16.3408C166.779 16.3408 167.212 16.4859 167.563 16.6518L168.079 14.5557C167.645 14.4314 167.439 14.4106 167.068 14.4106" fill="white"/>
<path fill-rule="evenodd" clip-rule="evenodd" d="M77 39.8713C77 36.0481 79.1471 32.7035 84.1224 32.7035C85.4021 32.7035 86.517 32.807 88.2103 33.1602L88.4165 36.3186H87.405L86.9306 33.9914C86.1454 33.7209 85.1546 33.5342 84.0604 33.5342C80.9018 33.5342 79.085 35.8406 79.085 39.4973C79.085 43.2789 80.9018 46.1247 84.2666 46.1247C85.1132 46.1247 86.2695 45.9166 87.0949 45.5639L87.5699 43.3408H88.5819L88.3752 46.5195C86.9507 46.7686 85.98 46.9559 83.8748 46.9559C79.0029 46.9559 77 43.9223 77 39.8713" fill="white"/>
<path fill-rule="evenodd" clip-rule="evenodd" d="M97.1168 41.9276C97.1168 39.1645 96.2294 37.7518 94.5981 37.7518C92.9468 37.7518 92.0381 39.0605 92.0381 41.9489C92.0381 44.7744 92.9261 46.1866 94.5367 46.1866C96.188 46.1866 97.1168 44.8161 97.1168 41.9276M90.0358 42.094C90.0358 39.1026 91.6458 36.8795 94.7015 36.8795C97.3437 36.8795 99.0985 38.6657 99.0985 41.9073C99.0985 45.0646 97.2202 47.0803 94.4741 47.0803C91.8319 47.0803 90.0358 45.1901 90.0358 42.094" fill="white"/>
<path fill-rule="evenodd" clip-rule="evenodd" d="M99.8461 45.9792L101.292 45.7092L101.518 44.1306V34.6564L101.292 33.0563L99.6399 32.7864V32.1424L103.48 31.7684L103.273 34.6564V44.1306L103.5 45.7092L104.925 45.9792V46.6237H99.8461V45.9792Z" fill="white"/>
<path fill-rule="evenodd" clip-rule="evenodd" d="M106.297 45.9792L107.743 45.7092L107.969 44.1306V34.6564L107.743 33.0563L106.091 32.7864V32.1424L109.93 31.7684L109.724 34.6564V44.1306L109.951 45.7092L111.376 45.9792V46.6237H106.297V45.9792Z" fill="white"/>
<path fill-rule="evenodd" clip-rule="evenodd" d="M116.616 40.432L118.02 40.2239C118.02 38.5829 117.257 37.7308 116.12 37.7308C114.965 37.7308 114.159 38.6037 113.933 40.432H116.616ZM112.115 42.0731C112.115 38.9158 113.705 36.9002 116.286 36.9002C118.454 36.9002 119.961 38.3123 119.878 41.2633H113.911C113.911 41.2633 113.891 41.5535 113.891 41.7199C113.891 44.068 115.026 45.7298 117.215 45.7298C117.875 45.7298 118.618 45.5639 119.341 45.0235L119.754 45.5842C118.578 46.6646 117.69 47.0594 116.204 47.0594C113.746 47.0594 112.115 45.2726 112.115 42.0731V42.0731Z" fill="white"/>
<path fill-rule="evenodd" clip-rule="evenodd" d="M127.033 40.4529C127.033 38.8118 126.475 37.606 125.134 37.606C123.936 37.606 123.296 38.6245 123.296 40.3275C123.296 41.9691 123.936 42.946 125.237 42.946C126.393 42.946 127.033 41.9899 127.033 40.4529M128.788 49.1161C128.788 48.3271 128.272 47.8698 126.042 47.4953L124.061 47.1635C123.482 47.4953 122.677 48.2017 122.677 48.9918C122.677 50.1965 123.875 50.9861 125.712 50.9861C127.446 50.9861 128.788 50.2173 128.788 49.1161M121.087 49.5317C121.087 48.4311 122.161 47.4542 123.255 46.9976C122.243 46.7681 121.562 46.2496 121.562 45.5016C121.562 44.6085 122.305 43.964 123.42 43.4027C122.181 42.9044 121.418 41.7408 121.418 40.2454C121.418 38.4165 122.76 36.817 125.175 36.817C125.96 36.817 126.682 36.9627 127.466 37.4609L130.192 36.7546V38.0841H128.065C128.581 38.7494 128.871 39.2685 128.871 40.3275C128.871 42.1767 127.343 43.7564 125.216 43.7564C124.927 43.7564 124.555 43.7351 124.226 43.6518C123.647 43.9432 123.173 44.379 123.173 44.712C123.173 45.4386 124.267 45.564 125.877 45.8126C127.838 46.1247 129.964 46.2074 129.964 48.3889C129.964 50.4046 128.065 52.0457 124.948 52.0457C122.718 52.0457 121.087 51.0901 121.087 49.5317" fill="white"/>
<path fill-rule="evenodd" clip-rule="evenodd" d="M135.353 40.432L136.757 40.2239C136.757 38.5829 135.993 37.7308 134.857 37.7308C133.702 37.7308 132.896 38.6037 132.669 40.432H135.353ZM130.852 42.0731C130.852 38.9158 132.442 36.9002 135.023 36.9002C137.191 36.9002 138.697 38.3123 138.615 41.2633H132.648C132.648 41.2633 132.628 41.5535 132.628 41.7199C132.628 44.068 133.763 45.7298 135.952 45.7298C136.612 45.7298 137.355 45.5639 138.079 45.0235L138.491 45.5842C137.314 46.6646 136.427 47.0594 134.94 47.0594C132.483 47.0594 130.852 45.2726 130.852 42.0731V42.0731Z" fill="white"/>
</svg>
