<svg width="24" height="24" viewBox="0 0 24 24" fill="none" xmlns="http://www.w3.org/2000/svg">
<g id="search" clip-path="url(#clip0)">
<path id="Combined Shape" fill-rule="evenodd" clip-rule="evenodd" d="M21 10.5C21 13.0436 20.0956 15.3759 18.5907 17.193C18.6314 17.2228 18.6703 17.2561 18.7071 17.2929L23.7203 22.306C24.1108 22.6966 24.1108 23.3297 23.7203 23.7203C23.3297 24.1108 22.6966 24.1108 22.306 23.7203L17.2929 18.7071C17.2561 18.6703 17.2228 18.6314 17.193 18.5907C15.3759 20.0956 13.0436 21 10.5 21C4.70101 21 0 16.299 0 10.5C0 4.70101 4.70101 0 10.5 0C16.299 0 21 4.70101 21 10.5ZM19 10.5C19 15.1944 15.1944 19 10.5 19C5.80558 19 2 15.1944 2 10.5C2 5.80558 5.80558 2 10.5 2C15.1944 2 19 5.80558 19 10.5Z" fill="white"/>
</g>
<defs>
<clipPath id="clip0">
<rect width="24" height="24" fill="white"/>
</clipPath>
</defs>
</svg>
